<?xml version="1.0" encoding="UTF-8"?>
<svg width="61px" height="79px" viewBox="0 0 61 79" version="1.1" xmlns="http://www.w3.org/2000/svg" xmlns:xlink="http://www.w3.org/1999/xlink">
    <!-- Generator: sketchtool 47.1 (45422) - http://www.bohemiancoding.com/sketch -->
    <title>2B1D5A94-CAB0-428B-8A3C-9AD91C9CE309</title>
    <desc>Created with sketchtool.</desc>
    <defs></defs>
    <g id="tablet" stroke="none" stroke-width="1" fill="none" fill-rule="evenodd">
        <g id="Node_1280-Copy" transform="translate(-179.000000, -1744.000000)">
            <g id="Group-9" transform="translate(112.000000, 1743.000000)">
                <g id="Group-8">
                    <g id="Group-15">
                        <g id="Group-42" transform="translate(67.000000, 0.000000)">
                            <path d="M29.4824538,7.17190873 C29.3076132,7.73667009 29.6244418,8.32572549 30.186103,8.49528036 C30.7518592,8.66685963 31.3438685,8.34848122 31.5171293,7.78756115 C31.6919699,7.22279979 31.3753901,6.63421234 30.8134801,6.46418952 C30.247502,6.29332846 29.6557146,6.61098866 29.4824538,7.17190873 Z M29.4824538,1.75259595 C29.6557146,1.19167588 30.247502,0.874015674 30.8134801,1.04487674 C31.3753901,1.21489956 31.6919699,1.80348701 31.5171293,2.36824837 C31.3438685,2.92916843 30.7518592,3.24754685 30.186103,3.07596758 C29.6244418,2.90641271 29.3076132,2.3173573 29.4824538,1.75259595 Z M38.1002209,8.15885308 C38.4788772,7.71022181 39.1477402,7.64904382 39.601965,8.0274675 C40.0527726,8.40353006 40.1142065,9.06902526 39.7325949,9.52057514 C39.3539386,9.96920641 38.6845909,10.0309588 38.2308509,9.65196072 C37.7800894,9.27642613 37.7186094,8.61040296 38.1002209,8.15885308 Z M46.23945,12.9357881 C46.7585942,12.6616716 47.4016708,12.8555088 47.6810607,13.3765327 C47.9581668,13.8940874 47.7658284,14.5341373 47.2428508,14.8098529 C46.7237065,15.0839694 46.0799652,14.8904831 45.80124,14.3691082 C45.523979,13.8520604 45.7164724,13.2115036 46.23945,12.9357881 Z M51.690109,9.68420039 C52.2092533,9.41008388 52.8523299,9.60392109 53.1317198,10.124945 C53.4088259,10.6424997 53.2164874,11.2825496 52.6935098,11.5582652 C52.1743656,11.8323817 51.5306243,11.6388955 51.2518991,11.1175205 C50.974638,10.6004727 51.1671314,9.95991595 51.690109,9.68420039 Z M51.2229788,20.1120284 C51.8079595,20.0625487 52.3241764,20.4922468 52.3777759,21.0810182 C52.4306286,21.6657038 52.0034928,22.1797202 51.4143587,22.2291741 C50.829378,22.2786539 50.3124121,21.8490191 50.2595616,21.2601843 C50.2063682,20.6759048 50.6338448,20.1614823 51.2229788,20.1120284 Z M53.700479,29.2235932 C54.2613991,29.396854 54.5790593,29.9886414 54.4081982,30.5546195 C54.2381754,31.1165295 53.649588,31.4331093 53.0848266,31.2582687 C52.5239065,31.0850079 52.2055281,30.4929986 52.3771074,29.9272424 C52.5466623,29.3655812 53.1357177,29.0487526 53.700479,29.2235932 Z M60.2412699,29.2235932 C60.8021899,29.396854 61.1198501,29.9886414 60.9489891,30.5546195 C60.7789663,31.1165295 60.1903788,31.4331093 59.6256175,31.2582687 C59.0646974,31.0850079 58.746319,30.4929986 58.9178982,29.9272424 C59.0874531,29.3655812 59.6765085,29.0487526 60.2412699,29.2235932 Z M51.999565,37.7929573 C52.4481962,38.1716136 52.5093742,38.8404765 52.1309505,39.2947013 C51.754888,39.745509 51.0893928,39.8069428 50.6378429,39.4253313 C50.1892116,39.046675 50.1274592,38.3773272 50.5064573,37.9235873 C50.8819919,37.4728258 51.5480151,37.4113458 51.999565,37.7929573 Z M47.6781824,45.8871872 C47.9522989,46.4063314 47.7584617,47.049408 47.2374378,47.3287979 C46.7198831,47.605904 46.0798332,47.4135655 45.8041176,46.8905879 C45.5300011,46.3714437 45.7234873,45.7277024 46.2448622,45.4489772 C46.7619101,45.1717162 47.4024668,45.3642095 47.6781824,45.8871872 Z M52.0387096,50.2226374 C52.3128261,50.7417816 52.1189889,51.3848582 51.597965,51.6642481 C51.0804103,51.9413542 50.4403604,51.7490158 50.1646448,51.2260382 C49.8905283,50.7068939 50.0840146,50.0631526 50.6053895,49.7844274 C51.1224373,49.5071664 51.7629941,49.6996598 52.0387096,50.2226374 Z M39.9750657,50.8443913 C40.0245454,51.429372 39.5948473,51.9455888 39.0060759,51.9991883 C38.4213904,52.0520411 37.9073739,51.6249052 37.85792,51.0357711 C37.8084403,50.4507905 38.2380751,49.9338246 38.8269098,49.8809741 C39.4111894,49.8277807 39.9256118,50.2552572 39.9750657,50.8443913 Z M14.5388382,47.3259199 C14.019694,47.6000365 13.3766174,47.4061992 13.0972275,46.8851753 C12.8201214,46.3676206 13.0124599,45.7275707 13.5354375,45.4518552 C14.0545817,45.1777386 14.698323,45.3712249 14.9770482,45.8925998 C15.2543092,46.4096476 15.0618159,47.0502044 14.5388382,47.3259199 Z M10.178311,51.6613702 C9.65916675,51.9354867 9.01609016,51.7416495 8.73670027,51.2206255 C8.45959418,50.7030709 8.65193261,50.0630209 9.17491022,49.7873054 C9.69405447,49.5131889 10.3377958,49.7066751 10.616521,50.22805 C10.893782,50.7450978 10.7012886,51.3856546 10.178311,51.6613702 Z M9.07051168,39.6678021 C8.48553102,39.7172818 7.96931414,39.2875837 7.91571465,38.6988123 C7.86286187,38.1141267 8.28999776,37.6001103 8.87913184,37.5506564 C9.4641125,37.5011767 9.9810784,37.9308114 10.0339289,38.5196462 C10.0871223,39.1039257 9.65964576,39.6183482 9.07051168,39.6678021 Z M7.29911477,31.2583621 C6.73819471,31.0851013 6.4205345,30.4933139 6.59139556,29.9273359 C6.76141838,29.3654259 7.35000583,29.048846 7.91476719,29.2236867 C8.47568726,29.3969475 8.79406567,29.9889568 8.6224864,30.554713 C8.45293153,31.1163741 7.86387613,31.4332028 7.29911477,31.2583621 Z M0.75954865,31.2606042 C0.198023458,31.0871566 -0.119979443,30.4947307 0.0510659455,29.9281421 C0.22127219,29.3656259 0.810494615,29.0487045 1.37586524,29.2237338 C1.93739044,29.3971815 2.25611232,29.9898294 2.08434795,30.556196 C1.91461016,31.1184631 1.32491928,31.4356335 0.75954865,31.2606042 Z M8.29392555,21.9868732 C7.84529428,21.6082169 7.78411629,20.939354 8.16253997,20.4851292 C8.53860253,20.0343215 9.20409773,19.9728877 9.65564761,20.3544992 C10.1042789,20.7331555 10.1660313,21.4025033 9.78703319,21.8562432 C9.4114986,22.3070047 8.74547543,22.3684847 8.29392555,21.9868732 Z M13.0999729,14.374653 C12.8258564,13.8555088 13.0196936,13.2124322 13.5407175,12.9330423 C14.0582722,12.6559362 14.6983221,12.8482746 14.9740377,13.3712522 C15.2481542,13.8903965 15.054668,14.5341378 14.533293,14.812863 C14.0162452,15.090124 13.3756885,14.8976306 13.0999729,14.374653 Z M8.73944565,10.0392028 C8.46532914,9.52005855 8.65916635,8.87698197 9.18019028,8.59759207 C9.69774495,8.32048598 10.3377949,8.51282441 10.6135104,9.03580202 C10.8876269,9.55494628 10.6941407,10.1986876 10.1727658,10.4774128 C9.65571797,10.7546738 9.01516121,10.5621804 8.73944565,10.0392028 Z M20.3184248,8.93543921 C20.2689451,8.35045855 20.6986432,7.83424167 21.2874146,7.78064218 C21.8721001,7.7277894 22.3861166,8.15492529 22.4355705,8.74405937 C22.4850502,9.32904003 22.0554155,9.84600593 21.4665807,9.8988564 C20.8823012,9.95204985 20.3678787,9.52457329 20.3184248,8.93543921 Z" id="Path-Copy" fill="#000000"></path>
                            <circle id="Oval-2" stroke="#000000" stroke-width="2" cx="30.5" cy="30.5" r="17.5"></circle>
                            <polyline id="Path-2" stroke="#007AFF" stroke-width="2" points="31.1297876 22 26 31.2285714 34 31.2285714 28.8600472 41"></polyline>
                            <path d="" id="Path-3" stroke="#979797"></path>
                            <path d="M31,48 L31,65.1168359 L31,65.1168359 C31,66.7694773 29.6602694,68.1092078 28.0076281,68.1092078 L28.0076281,68.1092078 L28.0076281,68.1092078 C26.3549867,68.1092078 25.0152561,66.7694773 25.0152561,65.1168359 L25.0152561,57.5295195 L25.0152561,57.5295195 C25.0152561,55.8684524 23.6686952,54.5218914 22.0076281,54.5218914 L22.0076281,54.5218914 L22.0076281,54.5218914 C20.3465609,54.5218914 19,55.8684524 19,57.5295195 L19,79" id="Path-4" stroke="#000000" stroke-width="2" stroke-linecap="round"></path>
                        </g>
                    </g>
                </g>
            </g>
        </g>
    </g>
</svg>