<?xml version="1.0" encoding="UTF-8"?>
<svg width="58px" height="57px" viewBox="0 0 58 57" version="1.1" xmlns="http://www.w3.org/2000/svg" xmlns:xlink="http://www.w3.org/1999/xlink">
    <!-- Generator: sketchtool 47.1 (45422) - http://www.bohemiancoding.com/sketch -->
    <title>EF39F716-4F1B-4CEC-A6BC-71BD663E7B59</title>
    <desc>Created with sketchtool.</desc>
    <defs></defs>
    <g id="Page-1" stroke="none" stroke-width="1" fill="none" fill-rule="evenodd">
        <g id="Node_1280" transform="translate(-615.000000, -1886.000000)" fill-rule="nonzero" fill="#000000">
            <g id="Group" transform="translate(615.000000, 1886.000000)">
                <path d="M21.9028571,34.1785714 C21.8257143,34.1785714 21.6714286,34.1785714 21.5942857,34.1028571 C20.9771429,33.9514286 20.5914286,33.3457143 20.7457143,32.74 L25.6828571,14.5685714 C25.8371429,13.9628571 26.4542857,13.5842857 27.0714286,13.7357143 C27.6885714,13.8871429 28.0742857,14.4928571 27.92,15.0985714 L22.9828571,33.27 C22.9057143,33.8757143 22.3657143,34.1785714 21.9028571,34.1785714 Z" id="Shape"></path>
                <path d="M29.7714286,34.1785714 C27.4571429,34.1785714 25.5285714,32.4371429 25.5285714,30.2414286 L25.5285714,27.8185714 C25.5285714,25.6985714 27.4571429,23.8814286 29.7714286,23.8814286 C32.0857143,23.8814286 34.0142857,25.6228571 34.0142857,27.8185714 L34.0142857,30.2414286 C34.0142857,32.4371429 32.0857143,34.1785714 29.7714286,34.1785714 Z M29.7714286,26.2285714 C28.6914286,26.2285714 27.8428571,26.9857143 27.8428571,27.8942857 L27.8428571,30.3171429 C27.8428571,31.2257143 28.6914286,31.9828571 29.7714286,31.9828571 C30.8514286,31.9828571 31.7,31.2257143 31.7,30.3171429 L31.7,27.8942857 C31.7,26.9857143 30.8514286,26.2285714 29.7714286,26.2285714 Z" id="Shape"></path>
                <path d="M18.9714286,23.9571429 C16.6571429,23.9571429 14.7285714,22.2157143 14.7285714,20.02 L14.7285714,17.5971429 C14.7285714,15.4771429 16.6571429,13.66 18.9714286,13.66 C21.2857143,13.66 23.2142857,15.4014286 23.2142857,17.5971429 L23.2142857,20.02 C23.2142857,22.2157143 21.2857143,23.9571429 18.9714286,23.9571429 Z M18.9714286,16.0071429 C17.8914286,16.0071429 17.0428571,16.7642857 17.0428571,17.6728571 L17.0428571,20.0957143 C17.0428571,21.0042857 17.8914286,21.7614286 18.9714286,21.7614286 C20.0514286,21.7614286 20.9,21.0042857 20.9,20.0957143 L20.9,17.6728571 C20.9,16.7642857 20.0514286,16.0071429 18.9714286,16.0071429 Z" id="Shape"></path>
                <path d="M29.0730157,51.3087454 C28.2603155,51.3087454 27.4476153,51.2289803 26.634915,51.1492153 C25.9847549,51.0694503 25.4971347,50.5110952 25.5784048,49.872975 C25.6596748,49.2348548 26.2285649,48.7562647 26.8787251,48.8360297 C27.6101553,48.9157947 28.3415855,48.9157947 29.0730157,48.9157947 C40.4508187,48.9157947 49.7968712,39.8225823 49.7968712,28.5757143 C49.7968712,27.7780641 49.7156012,26.9804139 49.6343312,26.2625287 C49.5530612,25.6244085 50.0406813,24.9862883 50.6908415,24.9065233 C51.3410016,24.8267583 51.9911618,25.3053484 52.0724318,25.9434686 C52.1537019,26.8208838 52.2349719,27.6982991 52.2349719,28.5757143 C52.2349719,41.0988226 41.8324091,51.3087454 29.0730157,51.3087454 Z" id="Shape"></path>
                <path d="M34.111757,56.1744117 C33.2990568,56.1744117 32.4863566,56.0946466 31.6736564,56.0148816 C31.0234962,55.9351166 30.5358761,55.3767615 30.6171461,54.6588763 C30.6984161,53.9409911 31.2673063,53.542166 31.9987365,53.621931 C32.7301667,53.701696 33.4615969,53.701696 34.1930271,53.701696 C45.5708301,53.701696 54.9168826,44.6084836 54.9168826,33.3616156 C54.9168826,32.5639654 54.8356126,31.8460802 54.7543426,31.0484299 C54.6730725,30.4103098 55.1606927,29.7721896 55.8108528,29.6924246 C56.461013,29.6126596 57.1111732,30.0912497 57.1924432,30.7293699 C57.2737132,31.6067851 57.3549833,32.4842003 57.3549833,33.3616156 C57.1924432,46.044254 46.8711505,56.1744117 34.111757,56.1744117 Z" id="Shape"></path>
                <path d="M24.4485714,40.6142857 C24.3714286,40.0085714 24.9114286,39.4785714 25.5285714,39.4028571 L25.5285714,39.4028571 C26.1457143,39.3271429 26.6857143,39.8571429 26.7628571,40.4628571 L26.7628571,40.4628571 C26.7628571,41.0685714 26.3,41.5985714 25.6828571,41.6742857 L25.6828571,41.6742857 C25.6828571,41.6742857 25.6057143,41.6742857 25.6057143,41.6742857 L25.6057143,41.6742857 C24.9885714,41.6742857 24.4485714,41.22 24.4485714,40.6142857 Z M20.7457143,41.3714286 C20.1285714,41.22 19.7428571,40.6142857 19.82,40.0085714 L19.82,40.0085714 C19.9742857,39.4028571 20.5914286,39.0242857 21.2085714,39.1 L21.2085714,39.1 C21.8257143,39.2514286 22.2114286,39.8571429 22.1342857,40.4628571 L22.1342857,40.4628571 C22.0571429,40.9928571 21.5171429,41.3714286 20.9771429,41.3714286 L20.9771429,41.3714286 C20.9,41.4471429 20.8228571,41.3714286 20.7457143,41.3714286 Z M29,40.0085714 C28.7685714,39.4028571 29.0771429,38.7971429 29.6942857,38.57 L29.6942857,38.57 C30.3114286,38.3428571 30.9285714,38.6457143 31.16,39.2514286 L31.16,39.2514286 C31.3914286,39.8571429 31.0828571,40.4628571 30.4657143,40.69 L30.4657143,40.69 C30.3114286,40.7657143 30.2342857,40.7657143 30.08,40.7657143 L30.08,40.7657143 C29.6171429,40.7657143 29.1542857,40.4628571 29,40.0085714 Z M16.1171429,39.7814286 C15.5771429,39.4785714 15.3457143,38.7971429 15.6542857,38.2671429 L15.6542857,38.2671429 C15.9628571,37.7371429 16.6571429,37.51 17.1971429,37.8128571 L17.1971429,37.8128571 C17.7371429,38.1157143 17.9685714,38.7971429 17.66,39.3271429 L17.66,39.3271429 C17.4285714,39.7057143 17.0428571,39.9328571 16.6571429,39.9328571 L16.6571429,39.9328571 C16.4257143,39.9328571 16.2714286,39.8571429 16.1171429,39.7814286 Z M33.2428571,38.1914286 C32.8571429,37.6614286 33.0114286,36.98 33.5514286,36.6014286 L33.5514286,36.6014286 C34.0914286,36.2228571 34.7857143,36.3742857 35.1714286,36.8285714 L35.1714286,36.8285714 C35.5571429,37.3585714 35.4028571,38.04 34.8628571,38.4185714 L34.8628571,38.4185714 L34.8628571,38.4185714 L34.8628571,38.4185714 C34.6314286,38.57 34.4,38.6457143 34.1685714,38.6457143 L34.1685714,38.6457143 C33.86,38.6457143 33.4742857,38.4942857 33.2428571,38.1914286 Z M12.0285714,36.98 C11.5657143,36.5257143 11.5657143,35.8442857 11.9514286,35.39 L11.9514286,35.39 C12.4142857,34.9357143 13.1085714,34.9357143 13.5714286,35.3142857 L13.5714286,35.3142857 C14.0342857,35.7685714 14.0342857,36.45 13.6485714,36.9042857 L13.6485714,36.9042857 C13.4171429,37.1314286 13.1085714,37.2828571 12.8,37.2828571 L12.8,37.2828571 C12.5685714,37.2828571 12.26,37.2071429 12.0285714,36.98 Z M36.8685714,35.3142857 C36.3285714,34.9357143 36.2514286,34.1785714 36.7142857,33.7242857 L36.7142857,33.7242857 C37.1,33.27 37.8714286,33.1185714 38.3342857,33.5728571 L38.3342857,33.5728571 C38.7971429,33.9514286 38.8742857,34.7085714 38.4885714,35.1628571 L38.4885714,35.1628571 C38.4885714,35.1628571 38.4885714,35.1628571 38.4885714,35.1628571 L38.4885714,35.1628571 C38.2571429,35.4657143 37.9485714,35.6171429 37.5628571,35.6171429 L37.5628571,35.6171429 C37.3314286,35.5414286 37.0228571,35.4657143 36.8685714,35.3142857 Z M8.94285714,33.27 C8.63428571,32.74 8.78857143,32.0585714 9.32857143,31.68 L9.32857143,31.68 C9.86857143,31.3771429 10.5628571,31.5285714 10.9485714,32.0585714 L10.9485714,32.0585714 C11.2571429,32.5885714 11.1028571,33.27 10.5628571,33.6485714 L10.5628571,33.6485714 C10.4085714,33.7242857 10.1771429,33.8 9.94571429,33.8 L9.94571429,33.8 C9.48285714,33.8 9.09714286,33.6485714 8.94285714,33.27 Z M39.4914286,31.6042857 C38.8742857,31.3771429 38.6428571,30.6957143 38.8742857,30.09 L38.8742857,30.09 C39.1057143,29.4842857 39.8,29.2571429 40.4171429,29.4842857 L40.4171429,29.4842857 C41.0342857,29.7114286 41.2657143,30.3928571 41.0342857,30.9985714 L41.0342857,30.9985714 L41.0342857,30.9985714 L41.0342857,30.9985714 C40.88,31.4528571 40.4171429,31.68 39.9542857,31.68 L39.9542857,31.68 C39.8,31.68 39.6457143,31.68 39.4914286,31.6042857 Z M6.93714286,28.8028571 C6.78285714,28.1971429 7.09142857,27.5914286 7.70857143,27.44 L7.70857143,27.44 C8.32571429,27.2885714 8.94285714,27.5914286 9.17428571,28.1971429 L9.17428571,28.1971429 C9.32857143,28.8028571 9.02,29.4085714 8.40285714,29.6357143 L8.40285714,29.6357143 C8.32571429,29.6357143 8.17142857,29.7114286 8.09428571,29.7114286 L8.09428571,29.7114286 C7.55428571,29.6357143 7.09142857,29.3328571 6.93714286,28.8028571 Z M41.0342857,27.2885714 C40.4171429,27.2128571 39.9542857,26.6071429 40.0314286,26.0014286 L40.0314286,26.0014286 C40.1085714,25.3957143 40.7257143,24.9414286 41.3428571,25.0171429 L41.3428571,25.0171429 C41.96,25.0928571 42.4228571,25.6985714 42.3457143,26.3042857 L42.3457143,26.3042857 C42.2685714,26.91 41.7285714,27.2885714 41.1885714,27.2885714 L41.1885714,27.2885714 C41.1114286,27.3642857 41.1114286,27.2885714 41.0342857,27.2885714 Z M6.24285714,24.0328571 C6.24285714,24.0328571 6.24285714,24.0328571 6.24285714,24.0328571 L6.24285714,24.0328571 C6.24285714,23.9571429 6.24285714,23.9571429 6.24285714,24.0328571 L6.24285714,24.0328571 C6.24285714,23.3514286 6.78285714,22.8214286 7.4,22.8214286 L7.4,22.8214286 C8.01714286,22.8214286 8.55714286,23.3514286 8.55714286,23.9571429 L8.55714286,23.9571429 C8.55714286,23.9571429 8.55714286,23.9571429 8.55714286,23.9571429 L8.55714286,23.9571429 C8.55714286,23.9571429 8.55714286,23.9571429 8.55714286,23.9571429 L8.55714286,23.9571429 C8.55714286,24.5628571 8.01714286,25.0928571 7.4,25.0928571 L7.4,25.0928571 C7.4,25.0928571 7.4,25.0928571 7.4,25.0928571 L7.4,25.0928571 C6.78285714,25.1685714 6.24285714,24.6385714 6.24285714,24.0328571 Z M40.0314286,21.8371429 L40.0314286,21.8371429 C39.9542857,21.2314286 40.4171429,20.6257143 41.0342857,20.55 L41.0342857,20.55 C41.6514286,20.4742857 42.2685714,20.9285714 42.3457143,21.5342857 L42.3457143,21.5342857 C42.4228571,22.14 41.96,22.7457143 41.3428571,22.8214286 L41.3428571,22.8214286 C41.2657143,22.8214286 41.2657143,22.8214286 41.1885714,22.8214286 L41.1885714,22.8214286 C40.5714286,22.8214286 40.1085714,22.3671429 40.0314286,21.8371429 Z M7.70857143,20.55 C7.09142857,20.3985714 6.70571429,19.7928571 6.93714286,19.1114286 L6.93714286,19.1114286 C7.09142857,18.5057143 7.78571429,18.1271429 8.40285714,18.3542857 L8.40285714,18.3542857 C9.02,18.5057143 9.40571429,19.1871429 9.17428571,19.7928571 L9.17428571,19.7928571 C9.02,20.3228571 8.55714286,20.6257143 8.09428571,20.6257143 L8.09428571,20.6257143 C7.94,20.6257143 7.78571429,20.55 7.70857143,20.55 Z M38.8742857,17.7485714 L38.8742857,17.7485714 C38.6428571,17.1428571 38.8742857,16.5371429 39.4914286,16.2342857 L39.4914286,16.2342857 C40.1085714,16.0071429 40.7257143,16.2342857 41.0342857,16.84 L41.0342857,16.84 C41.0342857,16.84 41.0342857,16.84 41.0342857,16.84 L41.0342857,16.84 C41.2657143,17.4457143 41.0342857,18.0514286 40.4171429,18.3542857 L40.4171429,18.3542857 C40.2628571,18.43 40.1085714,18.43 39.9542857,18.43 L39.9542857,18.43 C39.4914286,18.43 39.0285714,18.2028571 38.8742857,17.7485714 Z M9.25142857,16.2342857 C8.71142857,15.9314286 8.55714286,15.25 8.86571429,14.6442857 L8.86571429,14.6442857 C9.17428571,14.1142857 9.94571429,13.9628571 10.4857143,14.2657143 L10.4857143,14.2657143 C11.0257143,14.5685714 11.18,15.3257143 10.8714286,15.8557143 L10.8714286,15.8557143 C10.64,16.2342857 10.2542857,16.3857143 9.86857143,16.3857143 L9.86857143,16.3857143 C9.63714286,16.4614286 9.48285714,16.3857143 9.25142857,16.2342857 Z M36.6371429,14.1142857 L36.6371429,14.1142857 C36.2514286,13.66 36.3285714,12.9028571 36.7914286,12.5242857 L36.7914286,12.5242857 C37.3314286,12.1457143 38.0257143,12.2214286 38.4114286,12.6757143 L38.4114286,12.6757143 C38.7971429,13.13 38.72,13.8871429 38.2571429,14.2657143 L38.2571429,14.2657143 C38.0257143,14.4171429 37.7942857,14.4928571 37.4857143,14.4928571 L37.4857143,14.4928571 C37.1771429,14.5685714 36.8685714,14.4171429 36.6371429,14.1142857 Z M11.9514286,12.5242857 C11.4885714,12.07 11.5657143,11.3885714 12.0285714,10.9342857 L12.0285714,10.9342857 C12.4914286,10.48 13.2628571,10.5557143 13.6485714,11.01 L13.6485714,11.01 C14.1114286,11.4642857 14.0342857,12.2214286 13.5714286,12.6 L13.5714286,12.6 C13.34,12.8271429 13.0314286,12.9028571 12.8,12.9028571 L12.8,12.9028571 C12.4914286,12.9028571 12.1828571,12.8271429 11.9514286,12.5242857 Z M33.4742857,11.2371429 C32.9342857,10.8585714 32.8571429,10.1771429 33.1657143,9.64714286 L33.1657143,9.64714286 C33.5514286,9.11714286 34.2457143,9.04142857 34.7857143,9.34428571 L34.7857143,9.34428571 C35.3257143,9.72285714 35.4028571,10.4042857 35.0942857,10.9342857 L35.0942857,10.9342857 C34.8628571,11.2371429 34.4771429,11.3885714 34.1685714,11.3885714 L34.1685714,11.3885714 C33.9371429,11.4642857 33.7057143,11.3885714 33.4742857,11.2371429 Z M15.5,9.72285714 C15.1914286,9.19285714 15.4228571,8.51142857 15.9628571,8.20857143 L15.9628571,8.20857143 C16.5028571,7.90571429 17.1971429,8.13285714 17.5057143,8.66285714 L17.5057143,8.66285714 C17.8142857,9.19285714 17.5828571,9.87428571 17.0428571,10.1771429 L17.0428571,10.1771429 C16.8885714,10.2528571 16.6571429,10.3285714 16.5028571,10.3285714 L16.5028571,10.3285714 C16.1171429,10.3285714 15.7314286,10.1014286 15.5,9.72285714 Z M29.6171429,9.34428571 L29.6171429,9.34428571 C29,9.11714286 28.6914286,8.51142857 28.9228571,7.90571429 L28.9228571,7.90571429 C29.1542857,7.3 29.7714286,6.99714286 30.3885714,7.22428571 L30.3885714,7.22428571 C31.0057143,7.45142857 31.3142857,8.05714286 31.0828571,8.66285714 L31.0828571,8.66285714 C30.9285714,9.11714286 30.4657143,9.42 30.0028571,9.42 L30.0028571,9.42 C29.9257143,9.42 29.7714286,9.34428571 29.6171429,9.34428571 Z M19.7428571,7.90571429 C19.5885714,7.3 19.9742857,6.69428571 20.6685714,6.54285714 L20.6685714,6.54285714 C21.2857143,6.39142857 21.9028571,6.84571429 22.0571429,7.45142857 L22.0571429,7.45142857 C22.2114286,8.05714286 21.7485714,8.66285714 21.1314286,8.81428571 L21.1314286,8.81428571 C21.0542857,8.81428571 20.9771429,8.81428571 20.9,8.81428571 L20.9,8.81428571 C20.36,8.81428571 19.8971429,8.43571429 19.7428571,7.90571429 Z M25.4514286,8.43571429 L25.4514286,8.43571429 C24.8342857,8.36 24.2942857,7.83 24.3714286,7.22428571 L24.3714286,7.22428571 C24.4485714,6.61857143 24.9885714,6.16428571 25.6057143,6.16428571 L25.6057143,6.16428571 C26.2228571,6.24 26.7628571,6.77 26.6857143,7.37571429 L26.6857143,7.37571429 C26.6085714,7.98142857 26.1457143,8.43571429 25.5285714,8.43571429 L25.5285714,8.43571429 C25.4514286,8.43571429 25.4514286,8.43571429 25.4514286,8.43571429 Z" id="Shape"></path>
                <path d="M24.1155444,46.4430791 C11.356151,46.4430791 0.95358817,36.2331563 0.95358817,23.710048 C0.95358817,11.1869396 11.356151,0.977016902 24.1155444,0.977016902 C36.8749378,0.977016902 47.2775006,11.1869396 47.2775006,23.710048 C47.2775006,36.2331563 36.8749378,46.4430791 24.1155444,46.4430791 Z M24.1155444,2.9065233 C12.3953789,2.9065233 2.91950035,12.2069226 2.91950035,23.710048 C2.91950035,35.2131734 12.3953789,44.5135727 24.1155444,44.5135727 C35.8357099,44.5135727 45.3115884,35.2131734 45.3115884,23.710048 C45.3115884,12.2069226 35.8357099,2.9065233 24.1155444,2.9065233 Z" id="Shape"></path>
            </g>
        </g>
    </g>
</svg>