<?xml version="1.0" encoding="UTF-8"?>
<svg width="83px" height="58px" viewBox="0 0 83 58" version="1.1" xmlns="http://www.w3.org/2000/svg" xmlns:xlink="http://www.w3.org/1999/xlink">
    <!-- Generator: sketchtool 47.1 (45422) - http://www.bohemiancoding.com/sketch -->
    <title>9644F26E-2B42-4B90-807C-93087981AFC0</title>
    <desc>Created with sketchtool.</desc>
    <defs></defs>
    <g id="tablet" stroke="none" stroke-width="1" fill="none" fill-rule="evenodd">
        <g id="Node_1280-Copy" transform="translate(-384.000000, -1754.000000)" fill-rule="nonzero">
            <g id="Group-9" transform="translate(112.000000, 1743.000000)">
                <g id="Group-7" transform="translate(271.500000, 11.000000)">
                    <g id="Group-32">
                        <rect id="Rectangle-path" fill="#007AFF" x="76.261" y="17.633" width="1.909" height="16.826"></rect>
                        <rect id="Rectangle-path" fill="#007AFF" x="76.261" y="10.567" width="1.909" height="4.846"></rect>
                        <rect id="Rectangle-path" fill="#007AFF" x="10.84" y="32.053" width="1.909" height="9.709"></rect>
                        <rect id="Rectangle-path" fill="#007AFF" x="10.84" y="43.851" width="1.909" height="2.765"></rect>
                        <path d="M72.996,57.473 L83.049,57.473 L83.049,41.948 L72.996,41.948 L72.996,57.473 Z M74.905,55.564 L74.905,54.101 L81.14,54.101 L81.14,55.564 L74.905,55.564 Z M81.14,43.857 L81.14,52.192 L74.905,52.192 L74.905,43.857 L81.14,43.857 Z" id="Shape" fill="#000000"></path>
                        <path d="M25.115,0.526 L25.115,26.721 L5.583,26.721 L5.583,50.759 L0.451,57.473 L46.409,57.473 L41.277,50.759 L41.277,39.384 L52.878,39.384 L52.878,44.811 L46.396,44.811 L46.396,46.719 L61.27,46.719 L61.27,44.811 L54.787,44.811 L54.787,39.384 L82.55,39.384 L82.55,0.526 L25.115,0.526 Z M7.492,28.63 L39.368,28.63 L39.368,50.128 L7.492,50.128 L7.492,28.63 Z M4.313,55.564 L7.009,52.037 L39.85,52.037 L42.546,55.564 L4.313,55.564 Z M80.64,37.475 L41.277,37.475 L41.277,26.721 L27.024,26.721 L27.024,2.435 L80.64,2.435 L80.64,37.475 Z" id="Shape" fill="#000000"></path>
                    </g>
                </g>
            </g>
        </g>
    </g>
</svg>