<?xml version="1.0" encoding="UTF-8"?>
<svg width="83px" height="58px" viewBox="0 0 83 58" version="1.1" xmlns="http://www.w3.org/2000/svg" xmlns:xlink="http://www.w3.org/1999/xlink">
    <!-- Generator: sketchtool 47.1 (45422) - http://www.bohemiancoding.com/sketch -->
    <title>44721F7B-56AE-49A9-8827-E7E02031D05C</title>
    <desc>Created with sketchtool.</desc>
    <defs></defs>
    <g id="Page-1" stroke="none" stroke-width="1" fill="none" fill-rule="evenodd">
        <g id="Node_1280" transform="translate(-382.000000, -1882.000000)" fill-rule="nonzero" fill="#000000">
            <g id="icons" transform="translate(381.000000, 1882.000000)">
                <g id="Group">
                    <path d="M25.615,0.526 L25.615,26.721 L6.083,26.721 L6.083,50.759 L0.951,57.473 L46.909,57.473 L41.777,50.759 L41.777,39.384 L53.378,39.384 L53.378,44.811 L46.896,44.811 L46.896,46.719 L61.77,46.719 L61.77,44.811 L55.287,44.811 L55.287,39.384 L83.05,39.384 L83.05,0.526 L25.615,0.526 Z M7.992,28.63 L39.868,28.63 L39.868,50.128 L7.992,50.128 L7.992,28.63 Z M4.813,55.564 L7.509,52.037 L40.35,52.037 L43.046,55.564 L4.813,55.564 Z M81.14,37.475 L41.777,37.475 L41.777,26.721 L27.524,26.721 L27.524,2.435 L81.14,2.435 L81.14,37.475 Z" id="Shape"></path>
                    <rect id="Rectangle-path" x="76.261" y="17.633" width="1.909" height="16.826"></rect>
                    <rect id="Rectangle-path" x="76.261" y="10.567" width="1.909" height="4.846"></rect>
                    <rect id="Rectangle-path" x="10.84" y="32.053" width="1.909" height="9.709"></rect>
                    <rect id="Rectangle-path" x="10.84" y="43.851" width="1.909" height="2.765"></rect>
                    <path d="M72.996,57.473 L83.049,57.473 L83.049,41.948 L72.996,41.948 L72.996,57.473 Z M74.905,55.564 L74.905,54.101 L81.14,54.101 L81.14,55.564 L74.905,55.564 Z M81.14,43.857 L81.14,52.192 L74.905,52.192 L74.905,43.857 L81.14,43.857 Z" id="Shape"></path>
                </g>
            </g>
        </g>
    </g>
</svg>