<?xml version="1.0" encoding="utf-8"?>
<!-- Generator: Adobe Illustrator 17.0.0, SVG Export Plug-In . SVG Version: 6.00 Build 0)  -->
<!DOCTYPE svg PUBLIC "-//W3C//DTD SVG 1.1//EN" "http://www.w3.org/Graphics/SVG/1.1/DTD/svg11.dtd">
<svg version="1.1" id="Layer_1" xmlns="http://www.w3.org/2000/svg" xmlns:xlink="http://www.w3.org/1999/xlink" x="0px" y="0px"
	 width="81px" height="72.4px" viewBox="0 0 81 72.4" style="enable-background:new 0 0 81 72.4;" xml:space="preserve">
<style type="text/css">
	.st0{fill:#2aacea;}
</style>
<g id="_x23_000000ff">
	<path class="st0" d="M76.6,0.3c2-0.9,4.2,0.7,4.4,2.8v0.4c-4.1,21.4-8.2,42.9-12.3,64.3c-0.3,1.3-0.3,3-1.4,3.9c-1.1,1-2.8,1-4,0.2
		c-6.7-4.6-13.5-9.1-20.2-13.7c-3.7,2.6-7.3,5.3-11,7.9c-1.6,1.2-4.3,0.4-4.8-1.6c-1.9-7-3.7-14-5.6-20.9
		c-6.6-2.7-13.3-5.1-19.9-7.7c-1-0.4-1.5-1.5-1.8-2.5v-0.6c0.2-0.8,0.5-1.7,1.2-2.2C2,29.8,3,29.6,3.9,29.2
		C28.2,19.5,52.4,9.9,76.6,0.3 M13.7,32.1c-0.6,0.2-1.2,0.5-1.8,0.8c4.5,1.6,8.9,3.4,13.4,5.1c1.1,0.3,1.8,1.3,2.1,2.3
		c0.5,2.1,1.1,4.1,1.6,6.2c0.5-1.6,1.8-2.6,3-3.7c10.6-10.2,21.2-20.3,31.7-30.6C47.1,18.8,30.4,25.5,13.7,32.1 M37.4,46.5
		c8.5,5.8,17.1,11.6,25.6,17.3c3.3-17.1,6.6-34.2,9.8-51.4C60.9,23.8,49.2,35.2,37.4,46.5 M29.7,48.8c0.9,3.1,1.6,6.2,2.5,9.3
		c1.8-1.3,3.5-2.5,5.3-3.8C34.9,52.4,32.1,50.8,29.7,48.8z"/>
</g>
</svg>
